HIERARCHY
ROOT Hips
{
  OFFSET 57.8838 95.319 338.509
  CHANNELS 6 Xposition Yposition Zposition Zrotation Xrotation Yrotation
  JOINT LeftUpLeg
  {
    OFFSET 8.64259 1.95398 -2.38835
    CHANNELS 3 Zrotation Xrotation Yrotation
    JOINT LeftLeg
    {
      OFFSET 43.7702 0 0
      CHANNELS 3 Zrotation Xrotation Yrotation
      JOINT LeftFoot
      {
        OFFSET 40.6238 0 0
        CHANNELS 3 Zrotation Xrotation Yrotation
        JOINT LeftToeBase
        {
          OFFSET 12.7242 0 0
          CHANNELS 3 Zrotation Xrotation Yrotation
          End Site
          {
            OFFSET 0 0 0
          }
        }
      }
    }
  }
  JOINT RightUpLeg
  {
    OFFSET -8.2249 1.95398 -2.59336
    CHANNELS 3 Zrotation Xrotation Yrotation
    JOINT RightLeg
    {
      OFFSET 43.5653 0 0
      CHANNELS 3 Zrotation Xrotation Yrotation
      JOINT RightFoot
      {
        OFFSET 40.6238 0 0
        CHANNELS 3 Zrotation Xrotation Yrotation
        JOINT RightToeBase
        {
          OFFSET 12.7242 0 0
          CHANNELS 3 Zrotation Xrotation Yrotation
          End Site
          {
            OFFSET 0 0 0
          }
        }
      }
    }
  }
  JOINT Spine
  {
    OFFSET 0.165834 0.87714 6.61349
    CHANNELS 3 Zrotation Xrotation Yrotation
    JOINT Spine1
    {
      OFFSET 7.38963 1.71661e-005 0
      CHANNELS 3 Zrotation Xrotation Yrotation
      JOINT Spine2
      {
        OFFSET 11.9445 1.14441e-005 0
        CHANNELS 3 Zrotation Xrotation Yrotation
        JOINT Spine3
        {
          OFFSET 14.7254 4.19617e-005 0
          CHANNELS 3 Zrotation Xrotation Yrotation
          JOINT Spine4
          {
            OFFSET 10.9679 0 0
            CHANNELS 3 Zrotation Xrotation Yrotation
            JOINT RightShoulder
            {
              OFFSET 2.46616 -1.6653 3.69651
              CHANNELS 3 Zrotation Xrotation Yrotation
              JOINT RightArm
              {
                OFFSET 13.0012 0 0
                CHANNELS 3 Zrotation Xrotation Yrotation
                JOINT RightForeArm
                {
                  OFFSET 28.7848 1.62311e-005 0
                  CHANNELS 3 Zrotation Xrotation Yrotation
                  JOINT RightHand
                  {
                    OFFSET 26.5688 1.62095e-005 0
                    CHANNELS 3 Zrotation Xrotation Yrotation
                    End Site
                    {
                      OFFSET 0 0 0
                    }
                  }
                }
              }
            }
            JOINT LeftShoulder
            {
              OFFSET 2.38034 -1.29275 -3.7523
              CHANNELS 3 Zrotation Xrotation Yrotation
              JOINT LeftArm
              {
                OFFSET 16.3182 6.07031e-005 0
                CHANNELS 3 Zrotation Xrotation Yrotation
                JOINT LeftForeArm
                {
                  OFFSET 27.0901 0 0
                  CHANNELS 3 Zrotation Xrotation Yrotation
                  JOINT LeftHand
                  {
                    OFFSET 24.5451 1.51738e-005 0
                    CHANNELS 3 Zrotation Xrotation Yrotation
                    End Site
                    {
                      OFFSET 0 0 0
                    }
                  }
                }
              }
            }
            JOINT Neck
            {
              OFFSET 5.0226 -0.0266342 0
              CHANNELS 3 Zrotation Xrotation Yrotation
              JOINT Head
              {
                OFFSET 6.69364 2.86102e-005 0
                CHANNELS 3 Zrotation Xrotation Yrotation
                End Site
                {
                  OFFSET 0 0 0
                }
              }
            }
          }
        }
      }
    }
  }
}
MOTION
Frames:	12
Frame Time:	0.0416667
-141.167 91.9032 128.969 99.0426 53.4656 88.2217 179.437 1.67434 92.6315 -58.4179 11.8238 6.97259 52.1247 -3.41068 3.16316 54.7817 13.8124 15.0726 173.029 20.1523 95.8445 -36.3834 -4.09243 2.81689 70.0586 0.792026 8.04285 23.7097 6.50939 1.59627 -0.366236 7.5392 -91.3416 11.774 -1.35852 -2.52883 0.101391 -1.46847 -2.46664 -22.4152 -0.536054 -2.81997 -2.40254 -0.536055 -2.81997 96.7179 -49.2025 -90.5469 28.4769 -3.66564 -4.47644 1.97598 -11.1361 -12.9738 -12.1346 -0.822426 2.76817 -81.7658 -52.8784 91.3369 -37.9149 -19.4651 -16.2186 5.96372 61.6359 -8.14429 -5.64623 0.115379 -11.7456 13.7426 0.967455 0.738396 -15.7138 -0.429518 9.78182 
-134.742 92.7676 123.615 100.565 51.467 84.9671 -179.482 12.0655 86.343 -60.9639 7.35454 4.56093 56.4071 2.70672 6.75041 53.5597 13.1044 15.0687 173.393 13.4342 95.2826 -36.5084 -4.37389 1.12035 73.5708 -3.13796 8.01452 26.1966 3.25644 1.90548 -0.0271512 7.69438 -91.0795 11.4752 -0.558493 -2.0949 -0.197286 -0.650149 -2.06832 -22.719 0.0967646 -2.16588 -2.70633 0.096752 -2.16589 96.581 -48.7136 -90.8145 26.3493 -4.55888 -7.8025 1.02413 -9.09788 -18.6384 -16.7684 -1.06816 2.29512 -82.0904 -52.3781 90.8235 -36.451 -20.9796 -13.1467 0.777883 70.0084 -1.84884 -8.1896 0.299705 -12.0978 12.9148 -0.257134 -0.130987 -14.367 -1.03403 7.4998 
-128.665 93.7657 118.24 100.029 50.8922 83.5304 179.842 18.6358 84.2618 -45.5819 5.87247 1.94656 57.0501 4.08841 7.15005 54.4898 13.5188 14.5906 172.961 6.04852 94.0098 -32.2409 -3.13631 0.120078 75.7637 -5.18026 9.45572 27.7755 1.23705 1.64891 0.196185 7.53442 -90.8037 11.8028 0.0123674 -1.60396 0.130888 -0.0582335 -1.60296 -22.3969 0.493804 -1.52613 -2.38427 0.493804 -1.52613 98.1175 -47.0343 -88.5347 25.9491 -6.14469 -10.6902 -0.312581 -7.89336 -23.2792 -15.8683 -0.790299 0.577187 -81.9543 -52.6908 91.0461 -33.13 -22.8382 -7.75453 -1.31768 71.1771 -0.284779 -5.6011 0.0990439 -10.7028 10.9212 -1.18456 0.583515 -13.7725 -1.86123 5.42723 
-122.631 94.1912 112.795 98.8116 49.8115 83.7398 176.865 18.4049 84.7573 -17.3016 5.28217 0.374143 54.4058 1.2668 6.13985 44.6631 7.83556 13.3134 172.771 -1.5251 93.8842 -26.1317 -2.45927 -0.667248 75.6121 -7.35509 10.4863 29.947 -1.57859 2.36211 0.47691 7.31396 -90.6231 12.2482 0.652705 -1.31682 0.576759 0.594077 -1.34426 -21.956 1.01823 -1.05983 -1.9433 1.01825 -1.05983 99.5405 -45.026 -86.3557 26.2434 -7.67661 -12.3661 -2.10955 -8.11704 -26.9584 -13.4144 -0.582664 -0.141733 -80.8687 -51.6799 92.5855 -32.601 -25.7246 -3.57579 -0.366266 70.3269 -0.000816375 -6.12595 0.135963 -11.1693 10.6883 -1.58828 1.38887 -14.9793 -2.33316 3.93439 
-116.464 93.8249 106.857 98.7631 47.5014 85.3257 175.358 19.9455 87.1192 -6.75737 8.16387 1.37148 57.4339 -2.24423 3.21 39.5362 4.98284 12.4777 172.635 -8.5553 94.3097 -23.207 -3.46983 -0.93771 73.2956 -8.03525 12.2276 34.245 -7.03298 2.51025 0.858858 7.18629 -90.6872 12.5094 1.37915 -1.53194 0.83822 1.31044 -1.59116 -21.699 1.7758 -1.04663 -1.68636 1.77578 -1.04663 100.264 -44.1233 -85.1981 27.4275 -6.56485 -12.8665 -2.89918 -8.75649 -28.0189 -12.4276 -0.43551 -1.14034 -80.1325 -52.2382 93.705 -31.8625 -29.1824 -2.2893 2.46111 69.5577 0.00536081 -5.95899 0.173189 -11.835 9.34224 -1.44173 2.00905 -14.3994 -2.21142 3.20127 
-109.493 93.116 99.3062 99.338 46.6288 84.7742 176.366 19.3492 86.3221 -11.874 9.41657 0.761676 55.52 -3.27933 4.9695 39.2663 4.78996 11.0829 171.879 -11.5238 92.1831 -29.0865 -7.6888 -1.38465 68.5108 -1.75197 15.6578 39.4808 -13.7874 1.45252 0.918616 7.09815 -90.449 12.6865 1.60999 -1.08899 1.01603 1.56051 -1.1588 -21.526 1.86284 -0.55466 -1.51332 1.86284 -0.554658 100.152 -45.4808 -85.3211 28.1784 -5.62057 -11.3919 -1.68675 -8.56543 -25.3577 -12.9217 -0.49238 -0.787232 -79.0362 -51.5843 95.3078 -32.8111 -31.359 -2.69782 4.12477 67.8404 0.0103434 -6.50258 0.168165 -10.2116 9.78797 -1.39703 0.0641324 -16.0399 -1.88807 3.98967 
-102.442 92.5857 91.6003 100.748 47.4228 82.6473 177.838 19.391 84.2987 -25.6259 13.8319 0.493156 57.8066 -2.66981 10.2256 34.6609 2.38771 4.99328 169.959 -7.79295 86.6406 -41.641 -11.1061 -0.82047 52.3226 14.8057 18.1564 26.5303 3.77656 -9.57245 0.67479 7.10194 -90.0318 12.6729 1.32509 -0.21979 1.00259 1.31415 -0.277915 -21.538 1.32986 0.188682 -1.52531 1.32987 0.188687 100.319 -46.0699 -85.0211 30.9432 -5.17277 -9.46801 -0.166638 -10.5999 -18.3911 -10.7243 -0.45779 -0.21111 -79.6249 -50.2294 94.3832 -33.5956 -30.9291 -3.52782 4.08602 67.3527 0.0141152 -6.49501 0.173411 -10.4982 11.2008 -1.31736 -2.70933 -17.0665 -1.27528 4.74452 
-96.1805 92.802 85.1397 103.766 47.4856 78.9286 179.735 13.8223 82.5371 -30.896 14.3241 -0.0155163 62.9416 2.00767 11.7128 34.0572 2.10987 3.85002 171.174 3.51666 87.1579 -62.2797 -16.514 -1.19749 46.0456 21.5227 13.554 17.2335 17.8492 -7.1042 0.322169 7.46111 -89.7282 11.95 0.76868 0.458968 0.27924 0.788144 0.424694 -22.2565 0.595216 0.668777 -2.24382 0.595202 0.668765 99.9568 -46.4257 -85.596 32.5148 -5.73449 -8.57884 1.16513 -11.0466 -13.8191 -8.42728 -0.341363 -0.493472 -79.6389 -51.0305 94.3912 -34.6682 -28.4979 -10.1954 3.39068 68.4851 0.016623 -5.16434 0.0856938 -9.30351 11.793 0.10806 -2.96665 -15.4288 0.14716 5.7599 
-89.9953 94.0962 78.5102 104.249 50.3531 80.4899 -179.729 6.87044 84.3338 -29.7108 17.6235 1.5189 64.7676 4.83471 12.8392 36.6215 3.23542 3.13923 169.61 14.8313 91.8975 -68.5558 -14.2744 0.0669506 55.1429 10.506 9.86475 22.6469 9.53766 -6.61573 -0.119925 7.49763 -89.9653 11.8791 -0.222126 0.0933777 0.208092 -0.217784 0.103053 -22.3271 -0.239915 0.0223069 -2.31444 -0.239923 0.0222961 99.7098 -46.4468 -85.9968 33.9045 -6.81637 -5.08733 1.18273 -11.8619 -13.2061 -7.30502 -0.315638 -0.162616 -79.7856 -50.3771 94.1465 -38.3738 -25.2198 -18.8502 3.47292 68.6463 0.221751 -3.97846 0.0364589 -8.61888 10.2164 1.25537 -2.38802 -14.8264 1.0347 6.60984 
-84.0291 94.8135 72.4809 104.477 53.8274 81.1725 -178.704 0.128075 85.7929 -27.1832 18.9411 2.5786 65.7535 7.38894 12.0371 40.3661 4.89284 3.52669 168.089 21.5438 94.0424 -56.6394 -8.93809 2.15904 61.1449 2.39191 8.89378 30.1492 -1.77129 -7.72373 -0.502756 7.51464 -90.154 11.8437 -1.07219 -0.193014 0.173247 -1.07966 -0.145637 -22.3649 -0.964623 -0.50636 -2.35227 -0.964618 -0.506361 99.5647 -46.8659 -86.209 34.5585 -4.86338 -1.51875 1.32504 -11.9499 -12.7176 -7.07624 -0.230067 -1.51008 -79.6671 -49.4799 94.2915 -39.2304 -18.8528 -24.5212 2.92693 63.6108 -2.82334 -3.18465 -0.0390767 -9.41932 10.6545 1.56081 -2.66225 -15.4311 1.31518 7.11864 
-78.1007 95.2949 66.585 103.667 56.3907 80.793 -177.888 -5.79242 86.6308 -22.6709 19.2109 2.95664 64.7197 7.76134 9.9042 44.0105 6.60719 4.66678 171.175 21.7079 91.8173 -28.877 -1.88642 2.84674 61.5546 3.27 12.1189 30.0378 -1.60072 -7.28031 -0.672648 7.50971 -90.1424 11.8543 -1.40456 -0.133657 0.184061 -1.4091 -0.0717 -22.3564 -1.29944 -0.549673 -2.34379 -1.29945 -0.549677 99.6911 -47.328 -85.9795 35.0013 -2.78933 0.00894458 1.87111 -11.9076 -10.6345 -5.93838 -0.21186 -1.0534 -79.5982 -48.9781 94.3788 -38.1066 -12.7582 -28.2646 8.38705 56.4633 -13.6833 -1.92644 -0.115259 -10.5516 11.3863 1.1509 -3.21661 -14.5181 1.08284 7.42092 
-71.6907 95.4738 60.3502 103.771 59.5968 78.6005 -177.392 -12.5151 87.4463 -18.4184 22.6809 3.42168 60.6945 6.33258 7.52743 50.0951 9.67811 6.51554 175.389 21.9921 88.392 -14.8284 4.37053 -0.423749 65.5347 6.00062 15.8508 30.0886 -1.68872 -6.33479 -0.885459 7.39249 -90.0154 12.0916 -1.7674 0.163729 0.421809 -1.75848 0.241382 -22.1227 -1.73488 -0.375174 -2.11008 -1.73488 -0.375185 100.116 -47.6261 -85.2824 35.7828 -1.1172 1.63378 1.70382 -12.2569 -10.0405 -4.49903 -0.211756 0.345245 -79.5876 -48.7492 94.3867 -37.1335 -9.83296 -29.3023 11.6533 51.7576 -20.9826 -0.511649 -0.197592 -10.9563 10.9012 0.642271 -2.83049 -14.2144 0.569184 6.77095 
